<?xml version="1.0" encoding="utf-8"?>
<!-- Generator: Adobe Illustrator 24.0.0, SVG Export Plug-In . SVG Version: 6.00 Build 0)  -->
<svg version="1.1" id="Слой_1" xmlns="http://www.w3.org/2000/svg" xmlns:xlink="http://www.w3.org/1999/xlink" x="0px" y="0px"
	 viewBox="0 0 841.89 595.28" style="enable-background:new 0 0 841.89 595.28;" xml:space="preserve">
<style type="text/css">
	.st0{fill:none;stroke:#000000;stroke-width:4;stroke-miterlimit:10;}
	.st1{fill:#D33231;}
	.st2{fill:#FCF5F7;}
	.st3{fill:none;stroke:#356397;stroke-width:3;stroke-linecap:round;stroke-linejoin:round;stroke-miterlimit:10;}
	.st4{fill:none;stroke:#332E30;stroke-width:3;stroke-linecap:round;stroke-linejoin:round;stroke-miterlimit:10;}
</style>
<path class="st0" d="M357.55,542.94"/>
<path class="st0" d="M256.74,543.39"/>
<circle class="st1" cx="353.08" cy="378.9" r="13.03"/>
<g>
	<path class="st2" d="M491.6,334.57H379.49c-27.62,0-50.02-22.39-50.02-50.02v-39.49c0-27.62,22.39-50.02,50.02-50.02H491.6
		c27.62,0,50.02,22.39,50.02,50.02v39.49C541.62,312.17,519.23,334.57,491.6,334.57z"/>
	<polygon class="st2" points="389.97,337.57 356.24,367.55 360.08,320.88 389.97,320.88 	"/>
	<g>
		<path class="st3" d="M471.36,254.38c0-18.66-16.04-33.79-35.82-33.79c-19.78,0-35.82,15.13-35.82,33.79c0,0-2.04,27.9,31.01,53.06
			c2.79,2.12,6.82,2.12,9.61,0C473.4,282.28,471.36,254.38,471.36,254.38z"/>
		<ellipse class="st3" cx="435.54" cy="253.47" rx="17.32" ry="16.34"/>
	</g>
	<g>
		<g>
			<path class="st4" d="M497.95,196.4H373.14c-23.34,0-42.27,18.23-42.27,40.71v55.4c0,18.66,13.04,34.37,30.81,39.18l-8.63,45.05
				l38.96-43.53h105.94c23.34,0,42.27-18.23,42.27-40.71v-55.4C540.22,214.63,521.29,196.4,497.95,196.4z"/>
			<path class="st4" d="M353.05,378.09c-0.2,0-0.41-0.04-0.61-0.13c-0.57-0.26-0.89-0.86-0.77-1.46l8.4-43.86
				c-18.09-5.46-30.61-21.78-30.61-40.13v-55.4c0-23.19,19.59-42.06,43.67-42.06h124.81c24.08,0,43.67,18.87,43.67,42.06v55.4
				c0,23.19-19.59,42.06-43.67,42.06H392.66l-38.54,43.06C353.84,377.93,353.45,378.09,353.05,378.09z M373.14,197.75
				c-22.53,0-40.86,17.66-40.86,39.36v55.4c0,17.56,12.25,33.14,29.79,37.88c0.7,0.19,1.13,0.86,1,1.55l-7.69,40.15l35.58-39.75
				c0.27-0.3,0.65-0.47,1.06-0.47h105.94c22.53,0,40.87-17.66,40.87-39.36v-55.4c0-21.7-18.33-39.36-40.87-39.36H373.14z"/>
		</g>
	</g>
</g>
</svg>
