<?xml version="1.0" encoding="utf-8"?>
<svg version="1.1" id="Слой_1" x="0px" y="0px" viewBox="0 0 100 100" style="enable-background:new 0 0 841.89 595.28;" xmlns="http://www.w3.org/2000/svg" xmlns:bx="https://boxy-svg.com">
  <defs>
    <bx:grid x="0" y="0" width="31.516" height="104.371"/>
  </defs>
  <style type="text/css">
	.st0{fill:none;stroke:#000000;stroke-width:4;stroke-miterlimit:10;}
	.st1{fill:#D33231;}
	.st2{fill:#FCF5F7;}
	.st3{fill:none;stroke:#356397;stroke-width:3;stroke-linecap:round;stroke-linejoin:round;stroke-miterlimit:10;}
	.st4{fill:none;stroke:#332E30;stroke-width:3;stroke-linecap:round;stroke-linejoin:round;stroke-miterlimit:10;}
</style>
  <path class="st0" d="M357.55,542.94"/>
  <path class="st0" d="M256.74,543.39"/>
  <circle class="st1" cx="353.08" cy="378.9" r="13.03" style="" transform="matrix(0.4205, 0, 0, 0.391365, -148.294342, -49.016666)"/>
  <g style="" transform="matrix(0.4205, 0, 0, 0.391365, -121.301186, 125.316544)">
    <path class="st2" d="M 497.664 -159.673 L 385.554 -159.673 C 357.934 -159.673 335.534 -182.063 335.534 -209.693 L 335.534 -249.183 C 335.534 -276.803 357.924 -299.203 385.554 -299.203 L 497.664 -299.203 C 525.284 -299.203 547.684 -276.813 547.684 -249.183 L 547.684 -209.693 C 547.684 -182.073 525.294 -159.673 497.664 -159.673 Z" style="fill: none; stroke-width: 4.92693px;"/>
    <polygon class="st2" points="396.034 -156.673 346.666 -125.21 366.144 -173.363 396.034 -173.363" style="fill: none; stroke-width: 4.92693px;"/>
    <g transform="matrix(1, 0, 0, 1, 6.064015, -494.243317)">
      <path class="st3" d="M471.36,254.38c0-18.66-16.04-33.79-35.82-33.79c-19.78,0-35.82,15.13-35.82,33.79c0,0-2.04,27.9,31.01,53.06 c2.79,2.12,6.82,2.12,9.61,0C473.4,282.28,471.36,254.38,471.36,254.38z" style="stroke: rgb(140, 194, 255); stroke-width: 4.92693px;"/>
      <ellipse class="st3" cx="435.54" cy="253.47" rx="17.32" ry="16.34" style="stroke: rgb(140, 194, 255); stroke-width: 4.92693px;"/>
    </g>
    <g transform="matrix(1, 0, 0, 1, 6.064015, -494.243317)">
      <g>
        <path class="st4" d="M 497.95 196.4 L 373.14 196.4 C 349.8 196.4 330.87 214.63 330.87 237.11 L 330.87 292.51 C 330.87 311.17 343.91 326.88 361.68 331.69 L 332.813 379.458 L 392.01 333.21 L 497.95 333.21 C 521.29 333.21 540.22 314.98 540.22 292.5 L 540.22 237.1 C 540.22 214.63 521.29 196.4 497.95 196.4 Z" style="stroke-width: 4.92693px;"/>
        <path class="st4" d="M 333.273 378.831 C 333.073 378.831 334.473 378.791 334.273 378.701 C 333.703 378.441 333.383 379.571 333.503 378.971 L 360.07 332.64 C 341.98 327.18 329.46 310.86 329.46 292.51 L 329.46 237.11 C 329.46 213.92 349.05 195.05 373.13 195.05 L 497.94 195.05 C 522.02 195.05 541.61 213.92 541.61 237.11 L 541.61 292.51 C 541.61 315.7 522.02 334.57 497.94 334.57 L 392.66 334.57 L 333.653 378.618 C 333.373 378.918 333.673 378.831 333.273 378.831 Z M 373.14 197.75 C 350.61 197.75 332.28 215.41 332.28 237.11 L 332.28 292.51 C 332.28 310.07 344.53 325.65 362.07 330.39 C 362.77 330.58 363.2 331.25 363.07 331.94 L 333.043 379.574 L 390.96 332.34 C 391.23 332.04 391.61 331.87 392.02 331.87 L 497.96 331.87 C 520.49 331.87 538.83 314.21 538.83 292.51 L 538.83 237.11 C 538.83 215.41 520.5 197.75 497.96 197.75 L 373.14 197.75 Z" style="stroke-width: 4.92693px;"/>
      </g>
    </g>
  </g>
</svg>