<?xml version="1.0" encoding="utf-8"?>
<svg version="1.1" id="Слой_1" x="0px" y="0px" viewBox="0 0 841.89 595.28" style="enable-background:new 0 0 841.89 595.28;" xmlns="http://www.w3.org/2000/svg">
  <style type="text/css">
	.st0{fill:#E2CE8B;}
	.st1{fill:none;stroke:#000000;stroke-width:4;stroke-miterlimit:10;}
	.st2{fill:#C2D98E;}
	.st3{fill:#D2E2A7;}
	.st4{fill:#E9E9E9;}
	.st5{fill:#9A9286;}
</style>
  <path class="st1" d="M543.21,581.04"/>
  <path class="st1" d="M496.61,581.25"/>
  <rect x="14.55" y="16.83" class="st2" width="303.07" height="124.535" style="fill: rgba(195, 217, 142, 0.19);"/>
  <rect x="14.55" y="140.59" class="st3" width="303.07" height="249.117" style="fill: rgba(210, 226, 167, 0.28);"/>
  <path class="st2" d="M804.78,578.04H14.55V389.43h813.98V554.3C828.53,567.41,817.9,578.04,804.78,578.04z" style="fill: rgba(195, 217, 142, 0.29);"/>
  <path class="st3" d="M 443.14 493.12 L 335.03 493.12 L 335.03 388.934 L 450.11 388.934 L 450.11 486.81 C 450.11 490.295 446.99 493.12 443.14 493.12 Z" style="fill: rgba(210, 226, 167, 0.17);"/>
  <rect x="351.04" y="16.83" class="st2" width="476.66" height="372.475" style="fill: rgba(195, 217, 142, 0.28);"/>
  <rect x="359.212" y="291.97" class="st3" width="303.848" height="194.16" style="fill: rgba(210, 226, 167, 0.23);"/>
  <path class="st3" d="M705.29,266.7H579.26V157.01h133.36v102.36C712.62,263.42,709.34,266.7,705.29,266.7z" style="fill: rgba(210, 226, 167, 0.25);"/>
  <rect x="390.12" y="17.05" class="st3" width="151.54" height="144.12" style="fill: rgba(210, 226, 167, 0.13);"/>
  <rect x="437.76" y="428.28" class="st2" width="95.09" height="95.09" style="fill: rgba(195, 217, 142, 0.24);"/>
  <g>
    <path class="st4" d="M419.42,449.34c0.1-36.46,23.83-66.12,53.81-66.05l4.6,0.01l22.57,0.08l-0.14,52.39l-22.57-0.08l-4.6-0.01 c-6.23-0.01-10.31,6.09-10.33,13.66"/>
    <path class="st5" d="M424.67,449.25c0.09-33.02,22.26-59.84,49.42-59.77l4.6,0.01l4.19,0.08l0.11,39.92l-4.41-0.08l-4.6-0.01 c-9.06-0.02-16.45,8.92-16.48,19.93"/>
    <path class="st4" d="M454.58,415.88l-1.19-2.03c1.57-1.37,3.25-2.58,4.98-3.6l0.89,2.25C457.63,413.45,456.05,414.59,454.58,415.88 z"/>
    <path class="st4" d="M446.95,424.71l-1.68-1.43c1.1-1.92,2.35-3.74,3.71-5.42l1.46,1.75C449.16,421.19,447.98,422.9,446.95,424.71z "/>
    <path class="st4" d="M442.35,436.43l-1.98-0.65c0.51-2.27,1.18-4.5,2-6.62l1.86,1.06C443.46,432.2,442.83,434.3,442.35,436.43z"/>
    <g>
      <g>
        <rect x="467.46" y="406.64" transform="matrix(2.724119e-03 -1 1 2.724119e-03 57.9756 877.0437)" class="st4" width="2.49" height="5.63"/>
      </g>
    </g>
    <g>
      <path class="st4" d="M480.68,435.68l22.57-0.08l4.6-0.01c6.23-0.01,11.31,6.14,11.33,13.71l0.04,14.54l0.14,52.39l0.43,158.62 l43.09-0.1l-0.61-225.55c-0.1-36.46-24.57-66.07-54.56-66l-4.6,0.01l-22.57,0.08L480.68,435.68z"/>
      <path class="st5" d="M479.74,429.44l22.57-0.08l4.6-0.01c9.06-0.02,16.45,8.92,16.48,19.93l0.61,225.55l32.83-0.08l-0.61-225.55 c-0.09-33.02-22.26-59.84-49.42-59.77l-4.6,0.01l-22.57,0.08L479.74,429.44z"/>
      <g>
        <g>
          <rect x="539.86" y="500.35" transform="matrix(1 -2.724119e-03 2.724119e-03 1 -1.3703 1.4753)" class="st4" width="2.05" height="6.84"/>
          <rect x="539.89" y="514.04" transform="matrix(1 -2.724119e-03 2.724119e-03 1 -1.4076 1.4754)" class="st4" width="2.05" height="6.84"/>
          <rect x="539.93" y="527.73" transform="matrix(1 -2.724119e-03 2.724119e-03 1 -1.4449 1.4756)" class="st4" width="2.05" height="6.84"/>
          <rect x="539.93" y="527.66" transform="matrix(1 -2.724119e-03 2.724119e-03 1 -1.4447 1.4756)" class="st4" width="2.05" height="6.84"/>
          <rect x="539.97" y="541.35" transform="matrix(1 -2.724119e-03 2.724119e-03 1 -1.482 1.4758)" class="st4" width="2.05" height="6.84"/>
          <rect x="539.97" y="541.29" transform="matrix(1 -2.724119e-03 2.724119e-03 1 -1.4819 1.4757)" class="st4" width="2.05" height="6.84"/>
          <rect x="540" y="554.98" transform="matrix(1 -2.724119e-03 2.724119e-03 1 -1.5191 1.4759)" class="st4" width="2.05" height="6.84"/>
          <rect x="540" y="554.92" transform="matrix(1 -2.724119e-03 2.724119e-03 1 -1.519 1.4759)" class="st4" width="2.05" height="6.84"/>
          <rect x="540.04" y="568.6" transform="matrix(1 -2.724119e-03 2.724119e-03 1 -1.5563 1.4761)" class="st4" width="2.05" height="6.84"/>
          <rect x="540.04" y="568.54" transform="matrix(1 -2.724119e-03 2.724119e-03 1 -1.5561 1.4761)" class="st4" width="2.05" height="6.84"/>
          <rect x="540.08" y="582.23" transform="matrix(1 -2.724119e-03 2.724119e-03 1 -1.5934 1.4762)" class="st4" width="2.05" height="6.84"/>
          <rect x="540.08" y="582.17" transform="matrix(1 -2.724119e-03 2.724119e-03 1 -1.5932 1.4762)" class="st4" width="2.05" height="6.84"/>
          <rect x="540.12" y="595.85" transform="matrix(1 -2.724119e-03 2.724119e-03 1 -1.6305 1.4764)" class="st4" width="2.05" height="6.84"/>
          <rect x="540.12" y="595.79" transform="matrix(1 -2.724119e-03 2.724119e-03 1 -1.6303 1.4764)" class="st4" width="2.05" height="6.84"/>
          <rect x="540.15" y="609.48" transform="matrix(1 -2.724119e-03 2.724119e-03 1 -1.6676 1.4765)" class="st4" width="2.05" height="6.84"/>
          <rect x="540.15" y="609.42" transform="matrix(1 -2.724119e-03 2.724119e-03 1 -1.6674 1.4765)" class="st4" width="2.05" height="6.84"/>
          <rect x="540.19" y="623.11" transform="matrix(1 -2.724119e-03 2.724119e-03 1 -1.7047 1.4767)" class="st4" width="2.05" height="6.84"/>
          <rect x="540.19" y="623.04" transform="matrix(1 -2.724119e-03 2.724119e-03 1 -1.7046 1.4767)" class="st4" width="2.05" height="6.84"/>
          <rect x="540.23" y="636.73" transform="matrix(1 -2.724119e-03 2.724119e-03 1 -1.7418 1.4768)" class="st4" width="2.05" height="6.84"/>
          <rect x="540.23" y="636.67" transform="matrix(1 -2.724119e-03 2.724119e-03 1 -1.7417 1.4768)" class="st4" width="2.05" height="6.84"/>
          <rect x="540.26" y="650.36" transform="matrix(1 -2.724119e-03 2.724119e-03 1 -1.779 1.477)" class="st4" width="2.05" height="6.84"/>
          <rect x="540.26" y="650.3" transform="matrix(1 -2.724119e-03 2.724119e-03 1 -1.7788 1.477)" class="st4" width="2.05" height="6.84"/>
          <rect x="540.3" y="663.98" transform="matrix(1 -2.724119e-03 2.724119e-03 1 -1.8161 1.4771)" class="st4" width="2.05" height="6.84"/>
          <path class="st4" d="M526.38,417.87l1.19-2.03c-1.57-1.37-3.25-2.58-4.98-3.6l-0.89,2.25 C523.32,415.44,524.9,416.57,526.38,417.87z"/>
          <path class="st4" d="M534,427.26l1.68-1.43c-1.1-1.92-2.35-3.74-3.71-5.42l-1.46,1.75C531.79,423.74,532.97,425.45,534,427.26z"/>
          <path class="st4" d="M516.6,412.12l0.56-2.4c-1.85-0.64-3.76-1.09-5.69-1.34l-0.21,2.48 C513.06,411.09,514.86,411.52,516.6,412.12z"/>
          <path class="st4" d="M538.6,439.21l1.98-0.65c-0.51-2.27-1.18-4.5-2-6.62l-1.86,1.06C537.49,434.99,538.12,437.08,538.6,439.21z "/>
          <rect x="539.74" y="459.29" transform="matrix(1 -2.724119e-03 2.724119e-03 1 -1.2585 1.4748)" class="st4" width="2.05" height="6.84"/>
          <rect x="539.82" y="486.67" transform="matrix(1 -2.724119e-03 2.724119e-03 1 -1.3331 1.4751)" class="st4" width="2.05" height="6.84"/>
          <rect x="539.78" y="472.98" transform="matrix(1 -2.724119e-03 2.724119e-03 1 -1.2958 1.475)" class="st4" width="2.05" height="6.84"/>
          <path class="st4" d="M539.71,449.25l0.01,3.2l2.05,0l-0.01-3.2c0-1.24-0.05-2.5-0.15-3.75l-2.04,0.23 C539.66,446.89,539.7,448.06,539.71,449.25z"/>
        </g>
      </g>
      <g>
        <g>
          <rect x="489.06" y="408.18" transform="matrix(1 -2.724119e-03 2.724119e-03 1 -1.1135 1.3414)" class="st4" width="5.63" height="2.49"/>
          <rect x="477.8" y="408.21" transform="matrix(1 -2.724119e-03 2.724119e-03 1 -1.1136 1.3108)" class="st4" width="5.63" height="2.49"/>
        </g>
        <g>
          <rect x="500.41" y="408.16" transform="matrix(1 -2.724119e-03 2.724119e-03 1 -1.1134 1.3714)" class="st4" width="4.89" height="2.49"/>
        </g>
      </g>
    </g>
    <path class="st4" d="M462.76,449.34c0,0.3,0,20.16,0,20.46c-0.34,36.04-24.52,65.25-54.26,65.3l-4.6,0.01l-22.57,0.01l-0.1-52.39 l22.57-0.01l4.6-0.01c5.96-0.01,10.85-5.66,11.24-12.79c0.02-0.32-0.23-20.71-0.23-21.03"/>
    <path class="st5" d="M457.51,448.66c0,0.3-0.75,20.84-0.75,21.14c-0.34,32.61-22.23,59.03-49.14,59.07l-4.6,0.01l-4.19-0.06 l-0.29-39.92l4.41,0.06l4.6-0.01c8.82-0.01,16.03-8.53,16.38-19.15c0.01-0.28,0.75-22.07,0.75-22.35"/>
    <path class="st4" d="M427.01,502.39l1.2,2.03c-1.57,1.38-3.24,2.59-4.97,3.62l-0.9-2.25C423.97,504.83,425.54,503.69,427.01,502.39 z"/>
    <path class="st4" d="M434.6,493.53l1.69,1.42c-1.09,1.93-2.33,3.75-3.68,5.43l-1.47-1.75C432.41,497.06,433.57,495.34,434.6,493.53 z"/>
    <path class="st4" d="M439.14,481.79l1.98,0.65c-0.5,2.27-1.16,4.5-1.97,6.63l-1.86-1.05C438.05,486.02,438.68,483.93,439.14,481.79 z"/>
    <path class="st4" d="M442.25,468.87l0.01,3.2c0,1.24-0.04,2.5-0.13,3.75l-2.04-0.22c0.08-1.16,0.13-2.33,0.12-3.52l-0.01-3.2"/>
    <g>
      <g>
        <rect x="410.1" y="507.62" transform="matrix(1 -1.819289e-03 1.819289e-03 1 -0.9251 0.752)" class="st4" width="5.63" height="2.49"/>
      </g>
    </g>
    <g>
      <path class="st4" d="M400.81,482.69l-22.57,0.16l-4.6,0.03c-6.23,0.04-11.34-6.09-11.39-13.66l-0.11-14.54l-0.38-52.39 l-2.05-454.17l-43.09,0.26l2.54,521.1c0.26,36.46,24.87,65.97,54.86,65.79l4.6-0.03l22.57-0.16L400.81,482.69z"/>
      <path class="st5" d="M401.78,488.93l-22.57,0.16l-4.6,0.03c-9.06,0.06-16.49-8.86-16.57-19.87l-3.26-521.23l-32.83,0.2 l3.26,521.23c0.24,33.02,22.53,59.75,49.69,59.59l4.6-0.03l22.57-0.16L401.78,488.93z"/>
      <g>
        <g>
          <polygon class="st4" points="339.26,411.41 339.31,418.25 341.36,418.24 341.31,411.4 &#9;&#9;&#9;&#9;"/>
          <polygon class="st4" points="339.16,397.73 339.21,404.57 341.26,404.56 341.21,397.71 &#9;&#9;&#9;&#9;"/>
          <polygon class="st4" points="339.06,384.04 339.11,390.88 341.16,390.87 341.11,384.03 &#9;&#9;&#9;&#9;"/>
          <polygon class="st4" points="339.06,384.1 339.11,390.94 341.16,390.93 341.11,384.09 &#9;&#9;&#9;&#9;"/>
          <polygon class="st4" points="338.96,370.41 339.01,377.26 341.06,377.24 341.01,370.4 &#9;&#9;&#9;&#9;"/>
          <polygon class="st4" points="338.96,370.47 339.01,377.32 341.06,377.31 341.01,370.46 &#9;&#9;&#9;&#9;"/>
          <polygon class="st4" points="338.86,356.79 338.91,363.63 340.96,363.62 340.91,356.77 &#9;&#9;&#9;&#9;"/>
          <polygon class="st4" points="338.86,356.85 338.91,363.69 340.96,363.68 340.91,356.84 &#9;&#9;&#9;&#9;"/>
          <polygon class="st4" points="338.76,343.16 338.81,350.01 340.86,349.99 340.81,343.15 &#9;&#9;&#9;&#9;"/>
          <polygon class="st4" points="338.76,343.22 338.81,350.07 340.86,350.05 340.81,343.21 &#9;&#9;&#9;&#9;"/>
          <polygon class="st4" points="338.66,329.54 338.71,336.38 340.76,336.37 340.71,329.52 &#9;&#9;&#9;&#9;"/>
          <polygon class="st4" points="338.66,329.6 338.71,336.44 340.76,336.43 340.71,329.58 &#9;&#9;&#9;&#9;"/>
          <polygon class="st4" points="338.56,315.91 338.61,322.75 340.66,322.74 340.61,315.9 &#9;&#9;&#9;&#9;"/>
          <polygon class="st4" points="338.56,315.97 338.61,322.82 340.66,322.8 340.61,315.96 &#9;&#9;&#9;&#9;"/>
          <polygon class="st4" points="338.46,302.28 338.51,309.13 340.57,309.12 340.52,302.27 &#9;&#9;&#9;&#9;"/>
          <polygon class="st4" points="338.46,302.35 338.51,309.19 340.57,309.18 340.52,302.33 &#9;&#9;&#9;&#9;"/>
          <polygon class="st4" points="338.36,288.66 338.41,295.5 340.47,295.49 340.42,288.65 &#9;&#9;&#9;&#9;"/>
          <polygon class="st4" points="338.36,288.72 338.41,295.56 340.47,295.55 340.42,288.71 &#9;&#9;&#9;&#9;"/>
          <polygon class="st4" points="338.27,275.03 338.32,281.88 340.37,281.86 340.32,275.02 &#9;&#9;&#9;&#9;"/>
          <polygon class="st4" points="338.27,275.1 338.32,281.94 340.37,281.93 340.32,275.08 &#9;&#9;&#9;&#9;"/>
          <polygon class="st4" points="338.17,261.41 338.22,268.25 340.27,268.24 340.22,261.4 &#9;&#9;&#9;&#9;"/>
          <polygon class="st4" points="338.17,261.47 338.22,268.31 340.27,268.3 340.22,261.46 &#9;&#9;&#9;&#9;"/>
          <polygon class="st4" points="338.07,247.78 338.12,254.63 340.17,254.61 340.12,247.77 &#9;&#9;&#9;&#9;"/>
          <path class="st4" d="M355.2,500.68l-1.18,2.03c1.58,1.36,3.26,2.57,5,3.58l0.88-2.25C358.27,503.09,356.69,501.96,355.2,500.68z "/>
          <path class="st4" d="M347.53,491.31l-1.68,1.43c1.11,1.92,2.37,3.74,3.73,5.4l1.45-1.76 C349.76,494.83,348.58,493.12,347.53,491.31z"/>
          <path class="st4" d="M365.01,506.39l-0.55,2.4c1.85,0.64,3.77,1.08,5.7,1.32l0.2-2.48C368.55,507.4,366.74,506.98,365.01,506.39 z"/>
          <path class="st4" d="M342.88,479.38l-1.98,0.66c0.52,2.27,1.2,4.49,2.03,6.61l1.85-1.06 C344.01,483.6,343.37,481.51,342.88,479.38z"/>
          <polygon class="st4" points="339.55,452.47 339.6,459.31 341.66,459.3 341.61,452.46 &#9;&#9;&#9;&#9;"/>
          <polygon class="st4" points="339.36,425.1 339.41,431.94 341.46,431.93 341.41,425.08 &#9;&#9;&#9;&#9;"/>
          <polygon class="st4" points="339.46,438.78 339.51,445.63 341.56,445.61 341.51,438.77 &#9;&#9;&#9;&#9;"/>
          <path class="st4" d="M341.73,469.35l-0.02-3.2l-2.05,0.01l0.02,3.2c0.01,1.24,0.06,2.5,0.17,3.75l2.04-0.24 C341.79,471.71,341.74,470.54,341.73,469.35z"/>
        </g>
      </g>
      <g>
        <g>
          <polygon class="st4" points="386.92,507.75 386.94,510.25 392.57,510.21 392.55,507.72 &#9;&#9;&#9;&#9;"/>
          <polygon class="st4" points="398.18,507.68 398.2,510.18 403.83,510.14 403.81,507.65 &#9;&#9;&#9;&#9;"/>
        </g>
        <g>
          <polygon class="st4" points="376.3,507.82 376.32,510.31 381.21,510.28 381.2,507.79 &#9;&#9;&#9;&#9;"/>
        </g>
      </g>
    </g>
    <polygon class="st4" points="439.76,455.69 439.81,462.54 441.86,462.52 441.81,455.68 &#9;"/>
    <path class="st4" d="M439.18,449.34l0.01-3.2c0-1.24,0.05-2.5,0.15-3.75l2.04,0.23c-0.09,1.16-0.14,2.33-0.14,3.52l-0.01,3.2"/>
    <g>
      <g>
        <polygon class="st4" points="337.86,191.33 337.91,198.17 339.96,198.16 339.91,191.32 &#9;&#9;&#9;"/>
        <polygon class="st4" points="337.76,177.64 337.81,184.49 339.86,184.47 339.81,177.63 &#9;&#9;&#9;"/>
        <polygon class="st4" points="337.66,163.96 337.71,170.8 339.76,170.79 339.71,163.94 &#9;&#9;&#9;"/>
        <polygon class="st4" points="337.66,164.02 337.71,170.86 339.76,170.85 339.71,164.01 &#9;&#9;&#9;"/>
        <polygon class="st4" points="337.56,150.33 337.61,157.17 339.66,157.16 339.61,150.32 &#9;&#9;&#9;"/>
        <polygon class="st4" points="337.56,150.39 337.61,157.24 339.66,157.22 339.61,150.38 &#9;&#9;&#9;"/>
        <polygon class="st4" points="337.46,136.71 337.51,143.55 339.56,143.54 339.51,136.69 &#9;&#9;&#9;"/>
        <polygon class="st4" points="337.46,136.77 337.51,143.61 339.56,143.6 339.51,136.75 &#9;&#9;&#9;"/>
        <polygon class="st4" points="337.36,123.08 337.41,129.92 339.46,129.91 339.41,123.07 &#9;&#9;&#9;"/>
        <polygon class="st4" points="337.36,123.14 337.41,129.98 339.46,129.97 339.41,123.13 &#9;&#9;&#9;"/>
        <polygon class="st4" points="337.26,109.45 337.31,116.3 339.36,116.29 339.31,109.44 &#9;&#9;&#9;"/>
        <polygon class="st4" points="337.26,109.52 337.31,116.36 339.37,116.35 339.32,109.5 &#9;&#9;&#9;"/>
        <polygon class="st4" points="337.16,95.83 337.21,102.67 339.27,102.66 339.22,95.82 &#9;&#9;&#9;"/>
        <polygon class="st4" points="337.16,95.89 337.21,102.73 339.27,102.72 339.22,95.88 &#9;&#9;&#9;"/>
        <polygon class="st4" points="337.06,82.2 337.11,89.05 339.17,89.03 339.12,82.19 &#9;&#9;&#9;"/>
        <polygon class="st4" points="337.07,82.26 337.12,89.11 339.17,89.1 339.12,82.25 &#9;&#9;&#9;"/>
        <polygon class="st4" points="336.97,68.58 337.02,75.42 339.07,75.41 339.02,68.56 &#9;&#9;&#9;"/>
        <polygon class="st4" points="336.97,68.64 337.02,75.48 339.07,75.47 339.02,68.63 &#9;&#9;&#9;"/>
        <polygon class="st4" points="336.87,54.95 336.92,61.8 338.97,61.78 338.92,54.94 &#9;&#9;&#9;"/>
        <polygon class="st4" points="336.87,55.01 336.92,61.86 338.97,61.84 338.92,55 &#9;&#9;&#9;"/>
        <polygon class="st4" points="336.77,41.33 336.82,48.17 338.87,48.16 338.82,41.31 &#9;&#9;&#9;"/>
        <polygon class="st4" points="336.77,41.39 336.82,48.23 338.87,48.22 338.82,41.38 &#9;&#9;&#9;"/>
        <polygon class="st4" points="336.67,27.7 336.72,34.54 338.77,34.53 338.72,27.69 &#9;&#9;&#9;"/>
        <polygon class="st4" points="338.16,232.39 338.21,239.23 340.26,239.22 340.21,232.38 &#9;&#9;&#9;"/>
        <polygon class="st4" points="337.96,205.01 338.01,211.86 340.06,211.85 340.01,205 &#9;&#9;&#9;"/>
        <polygon class="st4" points="338.06,218.7 338.11,225.55 340.16,225.53 340.11,218.69 &#9;&#9;&#9;"/>
      </g>
    </g>
    <g>
      <g>
        <polygon class="st4" points="336.06,-26.68 336.11,-19.84 338.17,-19.85 338.12,-26.69 &#9;&#9;&#9;"/>
        <polygon class="st4" points="335.96,-40.36 336.01,-33.52 338.07,-33.53 338.02,-40.38 &#9;&#9;&#9;"/>
        <rect x="335.9" y="-51.98" transform="matrix(1 -5.215823e-03 5.215823e-03 1 0.2633 1.7567)" class="st4" width="2.05" height="4.77"/>
        <rect x="335.9" y="-51.98" transform="matrix(1 -5.241894e-03 5.241894e-03 1 0.2645 1.7655)" class="st4" width="2.05" height="4.83"/>
        <polygon class="st4" points="336.36,14.38 336.41,21.22 338.46,21.21 338.41,14.37 &#9;&#9;&#9;"/>
        <polygon class="st4" points="336.16,-12.99 336.21,-6.15 338.26,-6.16 338.21,-13.01 &#9;&#9;&#9;"/>
        <polygon class="st4" points="336.26,0.69 336.31,7.54 338.36,7.53 338.31,0.68 &#9;&#9;&#9;"/>
      </g>
    </g>
  </g>
</svg>