<?xml version="1.0" encoding="utf-8"?>
<svg version="1.1" id="Слой_1" x="0px" y="0px" viewBox="0 0 841.89 595.28" style="enable-background:new 0 0 841.89 595.28;" xmlns="http://www.w3.org/2000/svg">
  <style type="text/css">
	.st0{fill:#E2CE8B;}
	.st1{fill:none;stroke:#000000;stroke-width:4;stroke-miterlimit:10;}
	.st2{fill:#C2D98E;}
	.st3{fill:#D2E2A7;}
	.st4{fill:#E9E9E9;}
	.st5{fill:#9A9286;}
</style>
  <path class="st1" d="M543.21,581.04"/>
  <path class="st1" d="M496.61,581.25"/>
  <rect x="1.322" y="2.045" class="st2" width="303.07" height="124.535" style="fill: rgba(195, 217, 142, 0.16);"/>
  <rect x="-1.791" y="-1.032" class="st3" width="845.436" height="596.947" style="fill: rgba(210, 226, 167, 0.28);"/>
  <path class="st3" d="M 692.926 476.405 L 354.325 476.405 L 354.325 166.382 L 712.62 166.382 L 712.62 455.688 C 712.62 467.135 703.807 476.405 692.926 476.405 Z" style="fill: rgba(210, 226, 167, 0.25);"/>
  <rect x="-841.162" y="-5.209" class="st3" width="218.666" height="214.412" style="fill: rgba(210, 226, 167, 0.13);" transform="matrix(-1, 0, 0, 1, 0, 0)"/>
  <g style="" transform="matrix(2.061841, 0, 0, 1.590921, -460.254333, -155.611282)">
    <path class="st4" d="M 420.595 275.766 C 420.666 243.222 437.557 216.748 458.897 216.81 L 462.172 216.819 L 478.238 216.891 L 478.138 263.653 L 462.072 263.582 L 458.798 263.573 C 454.363 263.564 451.459 269.009 451.445 275.766" style=""/>
    <path class="st5" d="M 424.332 275.686 C 424.396 246.212 440.177 222.273 459.51 222.335 L 462.784 222.344 L 465.767 222.416 L 465.845 258.048 L 462.706 257.977 L 459.431 257.968 C 452.982 257.95 447.722 265.93 447.701 275.757" style="fill: rgba(7, 20, 64, 0.69);"/>
    <path class="st4" d="M 445.622 245.9 L 444.775 244.088 C 445.893 242.865 447.088 241.785 448.32 240.875 L 448.953 242.883 C 447.793 243.731 446.669 244.748 445.622 245.9 Z" style=""/>
    <path class="st4" d="M 440.191 253.781 L 438.995 252.505 C 439.778 250.791 440.668 249.167 441.636 247.667 L 442.675 249.229 C 441.764 250.639 440.924 252.166 440.191 253.781 Z" style=""/>
    <path class="st4" d="M 436.917 264.243 L 435.507 263.662 C 435.87 261.636 436.347 259.646 436.931 257.753 L 438.255 258.7 C 437.707 260.467 437.258 262.341 436.917 264.243 Z" style=""/>
    <g transform="matrix(0.711815, 0, 0, 0.89259, 122.044785, -125.311058)" style="">
      <g>
        <rect x="467.46" y="406.64" transform="matrix(2.724119e-03 -1 1 2.724119e-03 57.9756 877.0437)" class="st4" width="2.49" height="5.63"/>
      </g>
    </g>
    <g transform="matrix(0.711815, 0, 0, 0.89259, 122.044785, -125.311058)" style="">
      <path class="st4" d="M480.68,435.68l22.57-0.08l4.6-0.01c6.23-0.01,11.31,6.14,11.33,13.71l0.04,14.54l0.14,52.39l0.43,158.62 l43.09-0.1l-0.61-225.55c-0.1-36.46-24.57-66.07-54.56-66l-4.6,0.01l-22.57,0.08L480.68,435.68z"/>
      <path class="st5" d="M479.74,429.44l22.57-0.08l4.6-0.01c9.06-0.02,16.45,8.92,16.48,19.93l0.61,225.55l32.83-0.08l-0.61-225.55 c-0.09-33.02-22.26-59.84-49.42-59.77l-4.6,0.01l-22.57,0.08L479.74,429.44z" style="fill: rgba(7, 20, 64, 0.7);"/>
      <g>
        <g>
          <rect x="539.86" y="500.35" transform="matrix(1 -2.724119e-03 2.724119e-03 1 -1.3703 1.4753)" class="st4" width="2.05" height="6.84"/>
          <rect x="539.89" y="514.04" transform="matrix(1 -2.724119e-03 2.724119e-03 1 -1.4076 1.4754)" class="st4" width="2.05" height="6.84"/>
          <rect x="539.93" y="527.73" transform="matrix(1 -2.724119e-03 2.724119e-03 1 -1.4449 1.4756)" class="st4" width="2.05" height="6.84"/>
          <rect x="539.93" y="527.66" transform="matrix(1 -2.724119e-03 2.724119e-03 1 -1.4447 1.4756)" class="st4" width="2.05" height="6.84"/>
          <rect x="539.97" y="541.35" transform="matrix(1 -2.724119e-03 2.724119e-03 1 -1.482 1.4758)" class="st4" width="2.05" height="6.84"/>
          <rect x="539.97" y="541.29" transform="matrix(1 -2.724119e-03 2.724119e-03 1 -1.4819 1.4757)" class="st4" width="2.05" height="6.84"/>
          <rect x="540" y="554.98" transform="matrix(1 -2.724119e-03 2.724119e-03 1 -1.5191 1.4759)" class="st4" width="2.05" height="6.84"/>
          <rect x="540" y="554.92" transform="matrix(1 -2.724119e-03 2.724119e-03 1 -1.519 1.4759)" class="st4" width="2.05" height="6.84"/>
          <rect x="540.04" y="568.6" transform="matrix(1 -2.724119e-03 2.724119e-03 1 -1.5563 1.4761)" class="st4" width="2.05" height="6.84"/>
          <rect x="540.04" y="568.54" transform="matrix(1 -2.724119e-03 2.724119e-03 1 -1.5561 1.4761)" class="st4" width="2.05" height="6.84"/>
          <rect x="540.08" y="582.23" transform="matrix(1 -2.724119e-03 2.724119e-03 1 -1.5934 1.4762)" class="st4" width="2.05" height="6.84"/>
          <rect x="540.08" y="582.17" transform="matrix(1 -2.724119e-03 2.724119e-03 1 -1.5932 1.4762)" class="st4" width="2.05" height="6.84"/>
          <rect x="540.12" y="595.85" transform="matrix(1 -2.724119e-03 2.724119e-03 1 -1.6305 1.4764)" class="st4" width="2.05" height="6.84"/>
          <rect x="540.12" y="595.79" transform="matrix(1 -2.724119e-03 2.724119e-03 1 -1.6303 1.4764)" class="st4" width="2.05" height="6.84"/>
          <rect x="540.15" y="609.48" transform="matrix(1 -2.724119e-03 2.724119e-03 1 -1.6676 1.4765)" class="st4" width="2.05" height="6.84"/>
          <rect x="540.15" y="609.42" transform="matrix(1 -2.724119e-03 2.724119e-03 1 -1.6674 1.4765)" class="st4" width="2.05" height="6.84"/>
          <rect x="540.19" y="623.11" transform="matrix(1 -2.724119e-03 2.724119e-03 1 -1.7047 1.4767)" class="st4" width="2.05" height="6.84"/>
          <rect x="540.19" y="623.04" transform="matrix(1 -2.724119e-03 2.724119e-03 1 -1.7046 1.4767)" class="st4" width="2.05" height="6.84"/>
          <rect x="540.23" y="636.73" transform="matrix(1 -2.724119e-03 2.724119e-03 1 -1.7418 1.4768)" class="st4" width="2.05" height="6.84"/>
          <rect x="540.23" y="636.67" transform="matrix(1 -2.724119e-03 2.724119e-03 1 -1.7417 1.4768)" class="st4" width="2.05" height="6.84"/>
          <rect x="540.26" y="650.36" transform="matrix(1 -2.724119e-03 2.724119e-03 1 -1.779 1.477)" class="st4" width="2.05" height="6.84"/>
          <rect x="540.26" y="650.3" transform="matrix(1 -2.724119e-03 2.724119e-03 1 -1.7788 1.477)" class="st4" width="2.05" height="6.84"/>
          <rect x="540.3" y="663.98" transform="matrix(1 -2.724119e-03 2.724119e-03 1 -1.8161 1.4771)" class="st4" width="2.05" height="6.84"/>
          <path class="st4" d="M526.38,417.87l1.19-2.03c-1.57-1.37-3.25-2.58-4.98-3.6l-0.89,2.25 C523.32,415.44,524.9,416.57,526.38,417.87z"/>
          <path class="st4" d="M534,427.26l1.68-1.43c-1.1-1.92-2.35-3.74-3.71-5.42l-1.46,1.75C531.79,423.74,532.97,425.45,534,427.26z"/>
          <path class="st4" d="M516.6,412.12l0.56-2.4c-1.85-0.64-3.76-1.09-5.69-1.34l-0.21,2.48 C513.06,411.09,514.86,411.52,516.6,412.12z"/>
          <path class="st4" d="M538.6,439.21l1.98-0.65c-0.51-2.27-1.18-4.5-2-6.62l-1.86,1.06C537.49,434.99,538.12,437.08,538.6,439.21z "/>
          <rect x="539.74" y="459.29" transform="matrix(1 -2.724119e-03 2.724119e-03 1 -1.2585 1.4748)" class="st4" width="2.05" height="6.84"/>
          <rect x="539.82" y="486.67" transform="matrix(1 -2.724119e-03 2.724119e-03 1 -1.3331 1.4751)" class="st4" width="2.05" height="6.84"/>
          <rect x="539.78" y="472.98" transform="matrix(1 -2.724119e-03 2.724119e-03 1 -1.2958 1.475)" class="st4" width="2.05" height="6.84"/>
          <path class="st4" d="M539.71,449.25l0.01,3.2l2.05,0l-0.01-3.2c0-1.24-0.05-2.5-0.15-3.75l-2.04,0.23 C539.66,446.89,539.7,448.06,539.71,449.25z"/>
        </g>
      </g>
      <g>
        <g>
          <rect x="489.06" y="408.18" transform="matrix(1 -2.724119e-03 2.724119e-03 1 -1.1135 1.3414)" class="st4" width="5.63" height="2.49"/>
          <rect x="477.8" y="408.21" transform="matrix(1 -2.724119e-03 2.724119e-03 1 -1.1136 1.3108)" class="st4" width="5.63" height="2.49"/>
        </g>
        <g>
          <rect x="500.41" y="408.16" transform="matrix(1 -2.724119e-03 2.724119e-03 1 -1.1134 1.3714)" class="st4" width="4.89" height="2.49"/>
        </g>
      </g>
    </g>
    <path class="st4" d="M 451.445 275.766 C 451.445 276.034 451.445 293.76 451.445 294.028 C 451.203 326.197 433.991 352.27 412.822 352.314 L 409.547 352.323 L 393.482 352.332 L 393.411 305.569 L 409.476 305.561 L 412.751 305.552 C 416.993 305.543 420.474 300.5 420.751 294.135 C 420.766 293.85 420.588 275.65 420.588 275.364" style=""/>
    <path class="st5" d="M 447.708 275.159 C 447.708 275.427 447.174 293.76 447.174 294.028 C 446.932 323.136 431.35 346.718 412.195 346.754 L 408.921 346.762 L 405.938 346.709 L 405.732 311.077 L 408.871 311.13 L 412.145 311.121 C 418.424 311.112 423.556 303.508 423.805 294.028 C 423.812 293.778 424.339 274.329 424.339 274.079" style="fill: rgba(7, 20, 64, 0.66);"/>
    <path class="st4" d="M 425.997 323.118 L 426.852 324.93 C 425.734 326.162 424.545 327.242 423.314 328.161 L 422.673 326.153 C 423.833 325.296 424.951 324.278 425.997 323.118 Z" style=""/>
    <path class="st4" d="M 431.4 315.209 L 432.603 316.477 C 431.827 318.2 430.945 319.824 429.984 321.324 L 428.937 319.762 C 429.841 318.36 430.667 316.825 431.4 315.209 Z" style=""/>
    <path class="st4" d="M 434.632 304.73 L 436.041 305.311 C 435.685 307.337 435.215 309.327 434.639 311.228 L 433.315 310.291 C 433.856 308.506 434.304 306.641 434.632 304.73 Z" style=""/>
    <path class="st4" d="M 436.845 293.198 L 436.853 296.054 C 436.853 297.161 436.824 298.286 436.76 299.402 L 435.308 299.205 C 435.365 298.17 435.4 297.126 435.393 296.063 L 435.386 293.207" style=""/>
    <g transform="matrix(0.711815, 0, 0, 0.89259, 122.044785, -125.311058)" style="">
      <g>
        <rect x="410.1" y="507.62" transform="matrix(1 -1.819289e-03 1.819289e-03 1 -0.9251 0.752)" class="st4" width="5.63" height="2.49"/>
      </g>
    </g>
    <polygon class="st4" points="435.073 281.434 435.109 287.548 436.568 287.53 436.532 281.425" style=""/>
    <path class="st4" d="M 434.66 275.766 L 434.667 272.91 C 434.667 271.803 434.703 270.678 434.774 269.562 L 436.226 269.768 C 436.162 270.803 436.127 271.847 436.127 272.91 L 436.119 275.766" style=""/>
    <g transform="matrix(-0.711801, 0.005807, -0.004631, -0.892572, 749.663452, 691.721252)" style="">
      <path class="st4" d="M 480.68 435.68 L 503.25 435.6 L 507.85 435.59 C 514.08 435.58 519.16 441.73 519.18 449.3 L 519.22 463.84 L 519.36 516.23 L 519.696 640.152 L 519.79 674.85 L 562.88 674.75 L 562.27 449.2 C 562.17 412.74 537.7 383.13 507.71 383.2 L 503.11 383.21 L 480.54 383.29 L 480.68 435.68 Z"/>
      <path class="st5" d="M 479.74 429.54 L 502.31 429.46 L 506.91 429.45 C 515.97 429.43 523.36 438.392 523.39 449.43 L 524 675.543 L 556.83 675.462 L 556.22 449.349 C 556.13 416.247 533.96 389.36 506.8 389.43 L 502.2 389.44 L 479.63 389.52 L 479.74 429.54 Z" style="fill: rgba(7, 20, 64, 0.63);"/>
      <g>
        <g>
          <rect x="539.86" y="500.35" transform="matrix(1 -2.724119e-03 2.724119e-03 1 -1.3703 1.4753)" class="st4" width="2.05" height="6.84"/>
          <rect x="539.89" y="514.04" transform="matrix(1 -2.724119e-03 2.724119e-03 1 -1.4076 1.4754)" class="st4" width="2.05" height="6.84"/>
          <rect x="539.93" y="527.73" transform="matrix(1 -2.724119e-03 2.724119e-03 1 -1.4449 1.4756)" class="st4" width="2.05" height="6.84"/>
          <rect x="539.93" y="527.66" transform="matrix(1 -2.724119e-03 2.724119e-03 1 -1.4447 1.4756)" class="st4" width="2.05" height="6.84"/>
          <rect x="539.97" y="541.35" transform="matrix(1 -2.724119e-03 2.724119e-03 1 -1.482 1.4758)" class="st4" width="2.05" height="6.84"/>
          <rect x="539.97" y="541.29" transform="matrix(1 -2.724119e-03 2.724119e-03 1 -1.4819 1.4757)" class="st4" width="2.05" height="6.84"/>
          <rect x="540" y="554.98" transform="matrix(1 -2.724119e-03 2.724119e-03 1 -1.5191 1.4759)" class="st4" width="2.05" height="6.84"/>
          <rect x="540" y="554.92" transform="matrix(1 -2.724119e-03 2.724119e-03 1 -1.519 1.4759)" class="st4" width="2.05" height="6.84"/>
          <rect x="540.04" y="568.6" transform="matrix(1 -2.724119e-03 2.724119e-03 1 -1.5563 1.4761)" class="st4" width="2.05" height="6.84"/>
          <rect x="540.04" y="568.54" transform="matrix(1 -2.724119e-03 2.724119e-03 1 -1.5561 1.4761)" class="st4" width="2.05" height="6.84"/>
          <rect x="540.08" y="582.23" transform="matrix(1 -2.724119e-03 2.724119e-03 1 -1.5934 1.4762)" class="st4" width="2.05" height="6.84"/>
          <rect x="540.08" y="582.17" transform="matrix(1 -2.724119e-03 2.724119e-03 1 -1.5932 1.4762)" class="st4" width="2.05" height="6.84"/>
          <rect x="540.12" y="595.85" transform="matrix(1 -2.724119e-03 2.724119e-03 1 -1.6305 1.4764)" class="st4" width="2.05" height="6.84"/>
          <rect x="540.12" y="595.79" transform="matrix(1 -2.724119e-03 2.724119e-03 1 -1.6303 1.4764)" class="st4" width="2.05" height="6.84"/>
          <rect x="540.15" y="609.48" transform="matrix(1 -2.724119e-03 2.724119e-03 1 -1.6676 1.4765)" class="st4" width="2.05" height="6.84"/>
          <rect x="540.15" y="609.42" transform="matrix(1 -2.724119e-03 2.724119e-03 1 -1.6674 1.4765)" class="st4" width="2.05" height="6.84"/>
          <rect x="540.19" y="623.11" transform="matrix(1 -2.724119e-03 2.724119e-03 1 -1.7047 1.4767)" class="st4" width="2.05" height="6.84"/>
          <rect x="540.19" y="623.04" transform="matrix(1 -2.724119e-03 2.724119e-03 1 -1.7046 1.4767)" class="st4" width="2.05" height="6.84"/>
          <rect x="540.23" y="636.73" transform="matrix(1 -2.724119e-03 2.724119e-03 1 -1.7418 1.4768)" class="st4" width="2.05" height="6.84"/>
          <rect x="540.23" y="636.67" transform="matrix(1 -2.724119e-03 2.724119e-03 1 -1.7417 1.4768)" class="st4" width="2.05" height="6.84"/>
          <rect x="540.26" y="650.36" transform="matrix(1 -2.724119e-03 2.724119e-03 1 -1.779 1.477)" class="st4" width="2.05" height="6.84"/>
          <rect x="540.26" y="650.3" transform="matrix(1 -2.724119e-03 2.724119e-03 1 -1.7788 1.477)" class="st4" width="2.05" height="6.84"/>
          <rect x="540.3" y="663.98" transform="matrix(1 -2.724119e-03 2.724119e-03 1 -1.8161 1.4771)" class="st4" width="2.05" height="6.84"/>
          <path class="st4" d="M526.38,417.87l1.19-2.03c-1.57-1.37-3.25-2.58-4.98-3.6l-0.89,2.25 C523.32,415.44,524.9,416.57,526.38,417.87z"/>
          <path class="st4" d="M534,427.26l1.68-1.43c-1.1-1.92-2.35-3.74-3.71-5.42l-1.46,1.75C531.79,423.74,532.97,425.45,534,427.26z"/>
          <path class="st4" d="M516.6,412.12l0.56-2.4c-1.85-0.64-3.76-1.09-5.69-1.34l-0.21,2.48 C513.06,411.09,514.86,411.52,516.6,412.12z"/>
          <path class="st4" d="M538.6,439.21l1.98-0.65c-0.51-2.27-1.18-4.5-2-6.62l-1.86,1.06C537.49,434.99,538.12,437.08,538.6,439.21z "/>
          <rect x="539.74" y="459.29" transform="matrix(1 -2.724119e-03 2.724119e-03 1 -1.2585 1.4748)" class="st4" width="2.05" height="6.84"/>
          <rect x="539.82" y="486.67" transform="matrix(1 -2.724119e-03 2.724119e-03 1 -1.3331 1.4751)" class="st4" width="2.05" height="6.84"/>
          <rect x="539.78" y="472.98" transform="matrix(1 -2.724119e-03 2.724119e-03 1 -1.2958 1.475)" class="st4" width="2.05" height="6.84"/>
          <path class="st4" d="M539.71,449.25l0.01,3.2l2.05,0l-0.01-3.2c0-1.24-0.05-2.5-0.15-3.75l-2.04,0.23 C539.66,446.89,539.7,448.06,539.71,449.25z"/>
        </g>
      </g>
      <g>
        <g>
          <rect x="489.06" y="408.18" transform="matrix(1 -2.724119e-03 2.724119e-03 1 -1.1135 1.3414)" class="st4" width="5.63" height="2.49"/>
          <rect x="477.8" y="408.21" transform="matrix(1 -2.724119e-03 2.724119e-03 1 -1.1136 1.3108)" class="st4" width="5.63" height="2.49"/>
        </g>
        <g>
          <rect x="500.41" y="408.16" transform="matrix(1 -2.724119e-03 2.724119e-03 1 -1.1134 1.3714)" class="st4" width="4.89" height="2.49"/>
        </g>
      </g>
    </g>
  </g>
  <path class="st3" d="M 232.529 560.561 L 13.499 560.561 L 13.499 364.177 L 245.268 364.177 L 245.268 547.438 C 245.268 554.688 239.568 560.561 232.529 560.561 Z" style="fill: rgba(210, 226, 167, 0.25);"/>
</svg>