<?xml version="1.0" encoding="utf-8"?>
<!-- Generator: Adobe Illustrator 24.0.0, SVG Export Plug-In . SVG Version: 6.00 Build 0)  -->
<svg version="1.1" id="Слой_1" xmlns="http://www.w3.org/2000/svg" xmlns:xlink="http://www.w3.org/1999/xlink" x="0px" y="0px"
	 viewBox="0 0 841.89 595.28" style="enable-background:new 0 0 841.89 595.28;" xml:space="preserve">
<style type="text/css">
	.st0{fill:none;stroke:#000000;stroke-width:4;stroke-miterlimit:10;}
	.st1{fill:#D33231;}
	.st2{fill:#FCF5F7;}
	.st3{fill:#B3475A;}
	.st4{fill:none;stroke:#332E30;stroke-width:3;stroke-linecap:round;stroke-linejoin:round;stroke-miterlimit:10;}
</style>
<path class="st0" d="M717.57,870.67"/>
<circle class="st1" cx="350.54" cy="373.17" r="14.22"/>
<g>
	<path class="st2" d="M502.94,324.69H380.66c-30.13,0-54.55-24.42-54.55-54.55v-43.06c0-30.13,24.42-54.55,54.55-54.55h122.28
		c30.13,0,54.55,24.42,54.55,54.55v43.06C557.49,300.27,533.07,324.69,502.94,324.69z"/>
	<polygon class="st2" points="392.09,327.96 355.3,360.66 359.49,309.76 392.09,309.76 	"/>
	<g>
		<path class="st3" d="M409.83,271.86c0-8.7-6.76-15.78-15.07-15.78c-8.31,0-15.07,7.08-15.07,15.78c0,8.7,6.76,15.78,15.07,15.78
			C403.07,287.64,409.83,280.56,409.83,271.86z M384.23,271.86c0-6.08,4.72-11.03,10.53-11.03c5.81,0,10.53,4.95,10.53,11.03
			c0,6.08-4.72,11.03-10.53,11.03C388.95,282.89,384.23,277.94,384.23,271.86z"/>
		<ellipse class="st3" cx="394.76" cy="271.86" rx="5.46" ry="5.71"/>
		<path class="st3" d="M507.81,271.86c0-8.7-6.76-15.78-15.07-15.78c-8.31,0-15.07,7.08-15.07,15.78c0,8.7,6.76,15.78,15.07,15.78
			C501.05,287.64,507.81,280.56,507.81,271.86z M482.21,271.86c0-6.08,4.72-11.03,10.53-11.03c5.81,0,10.53,4.95,10.53,11.03
			c0,6.08-4.72,11.03-10.53,11.03C486.94,282.89,482.21,277.94,482.21,271.86z"/>
		<ellipse class="st3" cx="492.74" cy="271.86" rx="5.46" ry="5.71"/>
		<rect x="409.11" y="236.56" class="st3" width="9.23" height="3.05"/>
		<rect x="444.1" y="236.56" class="st3" width="9.23" height="3.05"/>
		<path class="st3" d="M521.74,234.33c-0.36-0.34-0.82-0.56-1.31-0.6l-43.32-4.28l-17.48-19.14c-0.43-0.47-1.02-0.73-1.64-0.73
			h-48.4c-0.51,0-1.01,0.18-1.41,0.51l-26.02,21.61h-21.44c-0.81,0-1.57,0.46-1.97,1.2l-6.95,12.74c-0.3,0.54-0.38,1.19-0.22,1.79
			l4.86,19.11c0.26,1.04,1.16,1.76,2.19,1.76h16.79c1.01,0,1.89-0.69,2.18-1.71c2.22-7.92,9.28-13.46,17.15-13.46
			c9.86,0,17.88,8.4,17.88,18.72c0,0.65-0.03,1.31-0.1,1.98c-0.07,0.67,0.14,1.34,0.57,1.84c0.43,0.5,1.04,0.79,1.69,0.79h57.92
			c0,0,0,0,0.01,0c1.25,0,2.27-1.06,2.27-2.37c0-0.14-0.01-0.28-0.04-0.42c-0.06-0.61-0.08-1.21-0.08-1.81
			c0-10.32,8.02-18.72,17.88-18.72c7.92,0,14.99,5.57,17.18,13.56c0.28,1.02,1.17,1.72,2.18,1.72h11.05c1.03,0,1.93-0.72,2.19-1.76
			l5.56-21.9c0.22-0.86-0.04-1.77-0.67-2.37L521.74,234.33z M362.04,236.45h20.92c0.51,0,1.01-0.18,1.41-0.51l26.02-21.61h46.64
			l17.4,19.05c0.38,0.41,0.88,0.67,1.43,0.72l43.41,4.28l4.61,4.37H358.61L362.04,236.45z M521.41,263.67h-7.67
			c-3.24-9.08-11.64-15.27-21-15.27c-12.31,0-22.34,10.45-22.41,23.32h-53.16c-0.08-12.87-10.1-23.32-22.41-23.32
			c-9.3,0-17.69,6.15-20.96,15.16h-13.42l-4.09-16.06h169.22L521.41,263.67z"/>
		<polygon class="st3" points="435.4,217.97 435.4,232.67 466.75,232.67 454.86,217.97 		"/>
		<polygon class="st3" points="396.48,232.67 431.29,232.67 431.29,217.97 412.15,217.97 		"/>
	</g>
	<g>
		<g>
			<path class="st4" d="M509.86,174H373.74c-25.46,0-46.1,19.88-46.1,44.4v60.42c0,20.35,14.22,37.49,33.6,42.73l-9.42,49.13
				l42.49-47.47h115.54c25.46,0,46.1-19.88,46.1-44.4V218.4C555.96,193.88,535.32,174,509.86,174z"/>
			<path class="st4" d="M351.83,372.16c-0.22,0-0.45-0.05-0.66-0.14c-0.62-0.29-0.97-0.94-0.84-1.6l9.17-47.83
				c-19.73-5.95-33.38-23.76-33.38-43.77V218.4c0-25.29,21.37-45.87,47.63-45.87h136.13c26.26,0,47.63,20.58,47.63,45.87v60.42
				c0,25.29-21.37,45.87-47.63,45.87H395.02l-42.04,46.96C352.69,371.98,352.26,372.16,351.83,372.16z M373.74,175.47
				c-24.58,0-44.57,19.26-44.57,42.93v60.42c0,19.15,13.36,36.14,32.49,41.32c0.76,0.21,1.23,0.94,1.09,1.69l-8.39,43.79
				l38.81-43.35c0.29-0.32,0.71-0.51,1.16-0.51h115.54c24.58,0,44.57-19.26,44.57-42.93V218.4c0-23.67-19.99-42.93-44.57-42.93
				H373.74z"/>
		</g>
	</g>
</g>
</svg>
