<?xml version="1.0" encoding="utf-8"?>
<svg version="1.1" id="Слой_1" x="0px" y="0px" viewBox="0 0 100 100" style="enable-background:new 0 0 841.89 595.28;" xmlns="http://www.w3.org/2000/svg">
  <style type="text/css">
	.st0{fill:none;stroke:#000000;stroke-width:4;stroke-miterlimit:10;}
	.st1{fill:#D33231;}
	.st2{fill:#FCF5F7;}
	.st3{fill:#B3475A;}
	.st4{fill:none;stroke:#332E30;stroke-width:3;stroke-linecap:round;stroke-linejoin:round;stroke-miterlimit:10;}
</style>
  <path class="st0" d="M717.57,870.67"/>
  <circle class="st1" cx="193.03" cy="185.78" r="10.899" style="" transform="matrix(0.444996, 0, 0, 0.465419, -85.471794, 13.363268)"/>
  <g transform="matrix(0.159398, 0, 0, 0.163512, -101.912262, 28.915958)" style="">
    <g transform="matrix(2.501513, 0, 0, 2.452657, -51.306545, -562.251831)">
      <path class="st2" d="M 503.769 318.922 L 392.875 318.782 C 346.733 325.786 331.392 300.27 331.392 270.14 L 331.481 226.095 C 331.481 195.965 350.341 175.832 380.246 178.298 L 502.526 178.298 C 532.242 175.826 551.688 196.95 551.688 227.08 L 552.103 270.14 C 553.346 299.858 533.899 318.922 503.769 318.922 Z" style="fill: rgba(252, 245, 247, 0.47);"/>
      <polygon class="st2" points="391.214 320.557 335.071 356.251 366.31 320.103 382.006 319.614" style="fill: rgba(252, 245, 247, 0.47);"/>
      <g>
        <path class="st3" d="M409.83,271.86c0-8.7-6.76-15.78-15.07-15.78c-8.31,0-15.07,7.08-15.07,15.78c0,8.7,6.76,15.78,15.07,15.78 C403.07,287.64,409.83,280.56,409.83,271.86z M384.23,271.86c0-6.08,4.72-11.03,10.53-11.03c5.81,0,10.53,4.95,10.53,11.03 c0,6.08-4.72,11.03-10.53,11.03C388.95,282.89,384.23,277.94,384.23,271.86z"/>
        <ellipse class="st3" cx="394.76" cy="271.86" rx="5.46" ry="5.71"/>
        <path class="st3" d="M507.81,271.86c0-8.7-6.76-15.78-15.07-15.78c-8.31,0-15.07,7.08-15.07,15.78c0,8.7,6.76,15.78,15.07,15.78 C501.05,287.64,507.81,280.56,507.81,271.86z M482.21,271.86c0-6.08,4.72-11.03,10.53-11.03c5.81,0,10.53,4.95,10.53,11.03 c0,6.08-4.72,11.03-10.53,11.03C486.94,282.89,482.21,277.94,482.21,271.86z"/>
        <ellipse class="st3" cx="492.74" cy="271.86" rx="5.46" ry="5.71"/>
        <rect x="409.11" y="236.56" class="st3" width="9.23" height="3.05"/>
        <rect x="444.1" y="236.56" class="st3" width="9.23" height="3.05"/>
        <path class="st3" d="M521.74,234.33c-0.36-0.34-0.82-0.56-1.31-0.6l-43.32-4.28l-17.48-19.14c-0.43-0.47-1.02-0.73-1.64-0.73 h-48.4c-0.51,0-1.01,0.18-1.41,0.51l-26.02,21.61h-21.44c-0.81,0-1.57,0.46-1.97,1.2l-6.95,12.74c-0.3,0.54-0.38,1.19-0.22,1.79 l4.86,19.11c0.26,1.04,1.16,1.76,2.19,1.76h16.79c1.01,0,1.89-0.69,2.18-1.71c2.22-7.92,9.28-13.46,17.15-13.46 c9.86,0,17.88,8.4,17.88,18.72c0,0.65-0.03,1.31-0.1,1.98c-0.07,0.67,0.14,1.34,0.57,1.84c0.43,0.5,1.04,0.79,1.69,0.79h57.92 c0,0,0,0,0.01,0c1.25,0,2.27-1.06,2.27-2.37c0-0.14-0.01-0.28-0.04-0.42c-0.06-0.61-0.08-1.21-0.08-1.81 c0-10.32,8.02-18.72,17.88-18.72c7.92,0,14.99,5.57,17.18,13.56c0.28,1.02,1.17,1.72,2.18,1.72h11.05c1.03,0,1.93-0.72,2.19-1.76 l5.56-21.9c0.22-0.86-0.04-1.77-0.67-2.37L521.74,234.33z M362.04,236.45h20.92c0.51,0,1.01-0.18,1.41-0.51l26.02-21.61h46.64 l17.4,19.05c0.38,0.41,0.88,0.67,1.43,0.72l43.41,4.28l4.61,4.37H358.61L362.04,236.45z M521.41,263.67h-7.67 c-3.24-9.08-11.64-15.27-21-15.27c-12.31,0-22.34,10.45-22.41,23.32h-53.16c-0.08-12.87-10.1-23.32-22.41-23.32 c-9.3,0-17.69,6.15-20.96,15.16h-13.42l-4.09-16.06h169.22L521.41,263.67z"/>
        <polygon class="st3" points="435.4,217.97 435.4,232.67 466.75,232.67 454.86,217.97 &#9;&#9;"/>
        <polygon class="st3" points="396.48,232.67 431.29,232.67 431.29,217.97 412.15,217.97 &#9;&#9;"/>
      </g>
      <g>
        <g>
          <path class="st4" d="M 509.86 174 L 373.74 174 C 348.28 174 327.64 193.88 327.64 218.4 L 327.64 278.82 C 327.64 299.17 341.86 316.31 361.24 321.55 L 319.341 368.861 L 394.31 323.21 L 509.85 323.21 C 535.31 323.21 555.95 303.33 555.95 278.81 L 555.95 218.4 C 555.96 193.88 535.32 174 509.86 174 Z"/>
          <path class="st4" d="M 317.979 370.341 C 317.759 370.341 319.816 368.471 319.606 368.381 C 318.986 368.091 318.179 369.716 318.309 369.056 L 359.5 322.59 C 339.77 316.64 326.12 298.83 326.12 278.82 L 326.12 218.4 C 326.12 193.11 347.49 172.53 373.75 172.53 L 509.88 172.53 C 536.14 172.53 557.51 193.11 557.51 218.4 L 557.51 278.82 C 557.51 304.11 536.14 324.69 509.88 324.69 L 395.02 324.69 L 319.587 368.921 C 319.297 369.251 318.409 370.341 317.979 370.341 Z M 373.74 175.47 C 349.16 175.47 329.17 194.73 329.17 218.4 L 329.17 278.82 C 329.17 297.97 342.53 314.96 361.66 320.14 C 362.42 320.35 362.89 321.08 362.75 321.83 L 319.594 368.349 L 393.17 322.27 C 393.46 321.95 393.88 321.76 394.33 321.76 L 509.87 321.76 C 534.45 321.76 554.44 302.5 554.44 278.83 L 554.44 218.4 C 554.44 194.73 534.45 175.47 509.87 175.47 L 373.74 175.47 Z" style="stroke-width: 5.00141px;"/>
        </g>
      </g>
    </g>
  </g>
</svg>