<?xml version="1.0" encoding="utf-8"?>
<svg version="1.1" id="Слой_1" x="0px" y="0px" viewBox="0 0 100 100" style="enable-background:new 0 0 841.89 595.28;" xmlns="http://www.w3.org/2000/svg">
  <style type="text/css">
	.st0{fill:none;stroke:#000000;stroke-width:4;stroke-miterlimit:10;}
	.st1{fill:#D33231;}
	.st2{fill:#FCF5F7;}
	.st3{fill:#B3475A;}
	.st4{fill:none;stroke:#332E30;stroke-width:3;stroke-linecap:round;stroke-linejoin:round;stroke-miterlimit:10;}
</style>
  <path class="st0" d="M717.57,870.67"/>
  <circle class="st1" cx="193.03" cy="185.78" r="14.22" style="" transform="matrix(0.444996, 0, 0, 0.465419, -85.471794, 13.363268)"/>
  <rect x="37.772" y="30.421" width="8.576" height="10.213" style="fill: rgb(255, 255, 255); fill-rule: nonzero;"/>
  <rect x="45.646" y="29.681" width="40.461" height="8.576" style="fill: rgb(255, 255, 255); fill-rule: nonzero;"/>
  <rect x="59.912" y="37.166" width="23.261" height="8.38" style="fill: rgb(255, 255, 255); fill-rule: nonzero;"/>
  <rect x="98.674" y="34.514" width="5.848" height="7.328" style="fill: rgb(255, 255, 255); fill-rule: nonzero;"/>
  <rect x="50.05" y="27.927" width="33.212" height="6.315" style="fill: rgb(255, 255, 255); fill-rule: nonzero;"/>
  <rect x="56.481" y="21.262" width="21.674" height="6.003" style="fill: rgb(255, 255, 255); fill-rule: nonzero;"/>
  <rect x="37.693" y="30.92" width="66.505" height="3.205" style="fill: rgb(255, 255, 255); fill-rule: nonzero;"/>
  <rect x="50.145" y="27.619" width="33.899" height="6.975" style="fill: rgb(255, 255, 255); fill-rule: nonzero;"/>
  <rect x="51.985" y="24.737" width="6.205" height="6.975" style="fill: rgb(255, 255, 255); fill-rule: nonzero;"/>
  <rect x="75.597" y="24.737" width="6.205" height="6.975" style="fill: rgb(255, 255, 255); fill-rule: nonzero;"/>
  <rect x="82.105" y="29.984" width="19.761" height="2.405" style="fill: rgb(255, 255, 255); fill-rule: nonzero;"/>
  <rect x="80.185" y="34.546" width="21.576" height="2.643" style="fill: rgb(255, 255, 255); fill-rule: nonzero;"/>
  <g transform="matrix(0.399758, 0, 0, 0.407721, -105.59977, -65.59346)" style="">
    <path class="st2" d="M502.94,324.69H380.66c-30.13,0-54.55-24.42-54.55-54.55v-43.06c0-30.13,24.42-54.55,54.55-54.55h122.28 c30.13,0,54.55,24.42,54.55,54.55v43.06C557.49,300.27,533.07,324.69,502.94,324.69z" style="fill: none; stroke-width: 4.95369px;"/>
    <polygon class="st2" points="392.09,327.96 355.3,360.66 359.49,309.76 392.09,309.76 &#9;" style="fill: none; stroke-width: 4.95369px;"/>
    <g>
      <ellipse class="st3" cx="492.872" cy="271.532" rx="12.176" ry="12.444" style="stroke-width: 4.95369px; fill: rgb(255, 255, 255);"/>
      <path class="st3" d="M507.81,271.86c0-8.7-6.76-15.78-15.07-15.78c-8.31,0-15.07,7.08-15.07,15.78c0,8.7,6.76,15.78,15.07,15.78 C501.05,287.64,507.81,280.56,507.81,271.86z M482.21,271.86c0-6.08,4.72-11.03,10.53-11.03c5.81,0,10.53,4.95,10.53,11.03 c0,6.08-4.72,11.03-10.53,11.03C486.94,282.89,482.21,277.94,482.21,271.86z" style="stroke-width: 4.95369px;"/>
      <ellipse class="st3" cx="492.74" cy="271.86" rx="7.058" ry="7.59" style="stroke-width: 4.95369px;"/>
      <rect x="409.11" y="236.56" class="st3" width="9.23" height="3.05" style="stroke-width: 4.95369px;"/>
      <rect x="444.1" y="236.56" class="st3" width="9.23" height="3.05" style="stroke-width: 4.95369px;"/>
      <path class="st3" d="M 521.74 234.33 C 521.38 233.99 520.92 233.77 520.43 233.73 L 477.11 229.45 L 459.63 210.31 C 459.2 209.84 458.61 209.58 457.99 209.58 L 409.59 209.58 C 409.08 209.58 408.58 209.76 408.18 210.09 L 382.16 231.7 L 360.72 231.7 C 359.91 231.7 359.15 232.16 358.75 232.9 L 351.8 245.64 C 351.5 246.18 351.42 246.83 351.58 247.43 L 356.44 266.54 C 356.7 267.58 357.6 268.3 358.63 268.3 L 375.42 268.3 C 376.43 268.3 377.31 267.61 377.6 266.59 C 379.82 258.67 386.88 254.436 394.75 254.436 C 404.61 254.436 412.63 261.53 412.63 271.85 C 412.63 272.5 412.6 273.16 412.53 273.83 C 412.46 274.5 412.67 275.17 413.1 275.67 C 413.53 276.17 414.14 276.46 414.79 276.46 L 472.71 276.46 C 472.71 276.46 472.71 276.46 472.72 276.46 C 473.97 276.46 474.99 275.4 474.99 274.09 C 474.99 273.95 474.98 273.81 474.95 273.67 C 474.89 273.06 474.87 272.46 474.87 271.86 C 474.87 261.54 482.89 253.14 492.75 253.14 C 500.67 253.14 507.74 258.71 509.93 266.7 C 510.21 267.72 511.1 268.42 512.11 268.42 L 523.16 268.42 C 524.19 268.42 525.09 267.7 525.35 266.66 L 530.91 244.76 C 531.13 243.9 530.87 242.99 530.24 242.39 L 521.74 234.33 Z M 362.04 236.45 L 386.158 236.973 C 386.668 236.973 386.368 237.054 386.768 236.724 L 411.189 215.636 L 455.964 215.114 L 473.098 234.425 C 473.478 234.835 473.711 235.356 474.261 235.406 L 518.737 239.164 L 523.347 241.182 L 358.876 240.66 L 362.04 236.45 Z M 521.144 261.58 L 515.871 262.364 C 512.631 253.284 502.1 248.4 492.74 248.4 C 480.43 248.4 470.134 255.976 470.064 268.846 L 418.236 269.107 C 418.156 256.237 407.07 248.4 394.76 248.4 C 385.46 248.4 377.336 252.198 374.066 261.208 L 360.646 261.208 C 360.646 255.376 356.29 247.455 356.29 247.5 L 525.51 247.5 L 521.144 261.58 Z" style="stroke-width: 4.95369px; stroke-miterlimit: 7; paint-order: fill;"/>
      <polygon class="st3" points="435.4,217.97 435.4,232.67 466.75,232.67 454.86,217.97 &#9;&#9;" style="stroke-width: 4.95369px;"/>
      <polygon class="st3" points="396.48,232.67 431.29,232.67 431.29,217.97 412.15,217.97 &#9;&#9;" style="stroke-width: 4.95369px;"/>
      <ellipse class="st3" cx="394.782" cy="272.766" rx="12.176" ry="12.444" style="stroke-width: 4.95369px; fill: rgb(255, 255, 255);"/>
      <path class="st3" d="M 409.6 272.778 C 409.6 264.078 402.84 256.998 394.53 256.998 C 386.22 256.998 379.46 264.078 379.46 272.778 C 379.46 281.478 386.22 288.558 394.53 288.558 C 402.84 288.558 409.6 281.478 409.6 272.778 Z M 384 272.778 C 384 266.698 388.72 261.748 394.53 261.748 C 400.34 261.748 405.06 266.698 405.06 272.778 C 405.06 278.858 400.34 283.808 394.53 283.808 C 388.73 283.808 384 278.858 384 272.778 Z" style="stroke-width: 4.95369px;"/>
      <ellipse class="st3" cx="394.725" cy="272.778" rx="7.058" ry="7.59" style="stroke-width: 4.95369px;"/>
    </g>
    <g>
      <g>
        <path class="st4" d="M 509.86 174 L 373.74 174 C 348.28 174 327.64 193.88 327.64 218.4 L 327.64 278.82 C 327.64 299.17 341.86 316.31 361.24 321.55 L 318.881 365.566 L 394.31 323.21 L 509.85 323.21 C 535.31 323.21 555.95 303.33 555.95 278.81 L 555.95 218.4 C 555.96 193.88 535.32 174 509.86 174 Z" style="stroke-width: 4.95369px;"/>
        <path class="st4" d="M 319.736 365.162 C 319.516 365.162 320.131 365.112 319.921 365.022 C 319.301 364.732 319.514 365.427 319.644 364.767 L 359.5 322.59 C 339.77 316.64 326.12 298.83 326.12 278.82 L 326.12 218.4 C 326.12 193.11 347.49 172.53 373.75 172.53 L 509.88 172.53 C 536.14 172.53 557.51 193.11 557.51 218.4 L 557.51 278.82 C 557.51 304.11 536.14 324.69 509.88 324.69 L 395.02 324.69 L 320.323 365.19 C 320.033 365.52 320.166 365.162 319.736 365.162 Z M 373.74 175.47 C 349.16 175.47 329.17 194.73 329.17 218.4 L 329.17 278.82 C 329.17 297.97 342.53 314.96 361.66 320.14 C 362.42 320.35 362.89 321.08 362.75 321.83 L 319.451 365.082 L 393.17 322.27 C 393.46 321.95 393.88 321.76 394.33 321.76 L 509.87 321.76 C 534.45 321.76 554.44 302.5 554.44 278.83 L 554.44 218.4 C 554.44 194.73 534.45 175.47 509.87 175.47 L 373.74 175.47 Z" style="stroke-width: 4.95369px;"/>
      </g>
    </g>
  </g>
</svg>